<svg width="1440" height="743" viewBox="0 0 1440 743" fill="none" xmlns="http://www.w3.org/2000/svg">
<path d="M1264.65 575.151C1277.14 564.83 1287.3 551.887 1298.88 541.184C1322.72 519.136 1340.6 491.891 1365.63 470.962C1380.43 458.52 1391.39 441.81 1406.96 429.582C1419.17 420.878 1430.14 410.549 1439.57 398.881C1454.22 381.404 1469.76 364.696 1486.14 348.824C1510.84 321.46 1537.7 296.122 1562.2 268.424C1577.44 251.238 1594.65 235.243 1610.09 218.081C1628.9 196.137 1649.06 175.383 1670.45 155.94C1683.7 144.355 1694.95 130.816 1707.08 118.254C1726.37 98.2316 1747.06 79.3293 1766.55 59.3543C1785.62 39.9514 1803.57 19.6904 1822.4 0.144531H1808.27C1786.7 22.5985 1764.7 44.6473 1742.96 66.8867C1723.03 90.254 1701.28 112.013 1677.93 131.96C1663.2 144.094 1649.34 157.236 1636.43 171.29C1622.49 185.163 1609.16 199.632 1595.7 213.814C1572.26 238.461 1549.48 263.68 1525.62 287.827C1505.73 305.674 1486.78 324.538 1468.84 344.343C1445 374.043 1416.4 398.666 1390.37 425.864C1366.98 450.225 1344.17 475.229 1320.36 499.208C1305.07 514.077 1290.74 529.905 1277.45 546.595C1271.11 554.795 1260.46 559.324 1257.67 570.241C1256.24 572.523 1254.6 574.662 1252.76 576.629C1232.72 593.574 1214.36 612.413 1197.94 632.883C1189.25 642.55 1179.97 651.665 1170.14 660.176C1160.04 669.442 1150.97 679.785 1143.11 691.02C1146.12 690.21 1148.95 695.12 1152.38 690.162C1167.4 668.209 1190.19 653.526 1206.95 633.146C1215.41 630.142 1216.72 620.798 1222.82 615.34C1238.65 604.054 1252.74 590.515 1264.65 575.151Z" fill="#212121"/>
<path d="M580.929 141.352C577.508 143.471 574.968 146.756 573.778 150.6C573.945 150.86 574.17 151.077 574.436 151.234C574.702 151.392 575.001 151.484 575.309 151.505C575.617 151.526 575.926 151.474 576.211 151.355C576.495 151.235 576.748 151.05 576.948 150.815C580.454 150.934 583.898 149.867 586.722 147.786C589.547 145.706 591.587 142.733 592.513 139.349C613.418 115.513 637.016 94.0602 659.518 71.9638C683.855 47.9366 709.407 24.7676 733.124 0.144531H715.748C699.539 17.2353 684.951 35.7085 667.217 51.5359C648.609 68.9341 631.096 87.4667 614.777 107.027C606.768 116.18 593.538 120.662 590.273 134.058C587.508 136.907 584.364 139.361 580.929 141.352Z" fill="#212121"/>
<path d="M116.166 193.243C102.793 206.02 92.8537 221.847 79.3623 234.242C55.0014 256.744 32.4044 280.985 8.97316 304.416C-27.9972 341.387 -61.7496 381.361 -98.0525 418.832C-100.436 421.215 -106.133 424.457 -101.604 429.915C-124.029 446.382 -144.081 465.856 -161.195 487.79C-181.471 506.21 -200.332 526.13 -217.616 547.382C-214.494 546.69 -211.323 552.411 -208.32 547.62C-194.4 525.118 -170.372 512.127 -155.141 490.865C-145.712 479.899 -135.344 469.778 -124.153 460.617C-112.874 451.459 -102.498 441.242 -93.1661 430.106C-82.5351 419.499 -72.0946 408.415 -61.6542 397.832C-51.2138 387.248 -41.2504 376.522 -31.9065 365.176C-13.3855 342.841 9.75973 325.083 27.8993 302.152C39.8175 287.087 58.0763 277.362 71.52 263.322C93.8071 240.01 115.641 216.365 138.62 193.696C166.103 166.785 190.392 136.798 217.709 109.553C235.61 91.7476 251.342 71.8204 268.647 53.371C283.116 37.8535 298.467 23.1225 313.436 8.08169C318.026 6.65489 322.09 3.90125 325.116 0.167969H307.954C307.459 1.71055 307.186 3.31568 307.143 4.93519C302.781 0.763807 299.992 3.93405 296.989 6.93744C276.847 27.413 255.061 46.6013 236.969 68.7693C220.927 88.4105 201.691 104.738 185.315 124.022C163.473 148.272 140.393 171.376 116.166 193.243Z" fill="#212121"/>
<path d="M1082.35 180.552C1047.8 216.788 1013.63 253.395 979.858 290.367C977.832 292.56 971.563 295.777 976.258 301.188C964.298 309.176 953.3 318.518 943.483 329.029C933.543 339.35 924.414 350.482 915.142 361.352C906.417 363.974 904.773 373.484 898.265 378.776C888.874 386.475 876.813 392.482 872.403 405.258C872.184 405.679 872.001 406.118 871.855 406.569C868.994 412.099 860.389 412.266 859.46 419.417C853.834 421.658 856.838 426.568 856.075 430.263L850.664 433.052C846.23 434.053 844.538 437.819 842.464 441.204C846.779 444.207 847.923 439.225 850.545 437.914C855.193 437.437 854.526 433.147 856.17 430.382C862.225 428.642 862.296 424.161 860.937 419.131C869.995 423.899 871.259 415.198 875.239 411.003C882.772 406.641 886.49 398.441 892.759 392.553C904.381 384.062 914.59 373.789 923.008 362.114C927.056 360.696 930.447 357.848 932.542 354.105C934.573 350.414 937.072 347 939.979 343.951C956.334 331.28 971.386 317.011 984.911 301.355C1000.9 287.993 1015.54 273.086 1028.6 256.853C1048.05 233.683 1070.15 213.041 1089.98 190.111C1098.22 179.965 1107.4 170.619 1117.39 162.198C1133.61 150.495 1148.37 136.891 1161.35 121.676C1174.74 105.655 1189.21 90.571 1204.66 76.5299C1230 52.169 1252.55 25.3053 1276.96 0.0625H1259.48C1233.72 29.8342 1202.28 54.2428 1176.06 84.1575C1146.71 117.981 1113.34 148.182 1082.35 180.552Z" fill="#212121"/>
<path d="M560.193 173.77C556.236 175.653 550.802 174.985 548.919 180.396C542.03 183.185 538.001 189.478 532.448 193.888C518.026 209.262 503.844 224.875 489.065 239.963C468.748 258.564 449.459 278.259 431.286 298.959C421.391 305.207 413.025 313.597 406.806 323.51C394.701 332.863 383.662 343.518 373.887 355.284C371.051 358.455 369.454 360.838 372.028 364.604C387.4 355.351 400.324 342.541 409.714 327.253L436.983 301.7C450.665 286.945 465.896 273.668 479.888 259.39C499.423 241.378 517.059 221.41 532.519 199.799C539.294 195.898 545.02 190.409 549.205 183.805C551.683 183.087 553.963 181.808 555.868 180.068C557.774 178.328 559.254 176.173 560.193 173.77Z" fill="#212121"/>
<path d="M573.158 159.062C566.007 159.062 563.123 164.378 560.12 169.574C569.058 171.744 571.037 165.331 573.158 159.062Z" fill="#212121"/>
<path d="M1130.03 707.034C1127.21 709.299 1123.73 711.348 1127.64 715.544C1128.96 715.252 1130.19 714.65 1131.23 713.788C1132.27 712.925 1133.09 711.828 1133.63 710.586C1135.59 709.308 1137.26 707.631 1138.54 705.664C1139.81 703.697 1140.65 701.483 1141.01 699.168C1140.43 699.299 1139.83 699.299 1139.25 699.168C1137.89 703.816 1132.41 703.602 1130.03 707.034Z" fill="#212121"/>
<path d="M-422.801 492.382C-401.229 471.645 -381.35 449.31 -360.326 428.167C-344.562 413.736 -329.684 398.365 -315.776 382.139C-292.659 354.318 -267.93 327.878 -241.716 302.954C-201.694 262.599 -163.055 221.004 -121.866 181.674C-96.2657 157.218 -73.0967 130.235 -47.9731 105.397C-25.4812 83.1203 -3.49062 60.3429 17.9824 37.0821C29.4 24.6872 40.913 12.4351 52.4975 0.207031H34.0244C22.4637 13.4363 11.0459 26.8563 -1.84958 39.0844C-24.232 60.275 -43.5633 86.2089 -66.494 106.208C-102.582 137.72 -130.852 177.026 -169.42 205.582C-169.754 205.796 -169.801 206.416 -170.087 206.726C-184.077 223.348 -198.89 239.259 -214.471 254.399C-253.205 295.136 -292.893 335.062 -331.889 375.584C-368.24 413.317 -405.782 450.049 -440.56 489.474C-465.493 517.768 -493.691 543.273 -520.936 569.422C-526.442 574.713 -526.728 582.532 -532.854 587.18C-553.233 602.624 -571.595 620.562 -587.511 640.573C-617.979 676.281 -650.297 710.366 -684.335 742.689H-664.789C-635.327 714.276 -608.201 683.67 -580.456 653.684C-542.127 612.303 -500.747 574.07 -462.561 532.618C-449.719 518.806 -436.459 505.388 -422.801 492.382Z" fill="#212121"/>
<path d="M-274.705 479.923C-247.674 452.607 -221.692 424.218 -195.687 396.091C-168.823 367.058 -140.052 339.741 -114.643 309.278C-106.295 299.048 -97.1619 289.484 -87.3263 280.674C-64.348 253.644 -35.8395 232.143 -13.6239 204.398C-7.91787 197.373 -1.7717 190.717 4.77769 184.47C34.9785 155.152 64.5835 125.213 91.9239 93.1768C110.659 80.0668 120.885 58.5901 138.143 44.7888C154.828 31.2974 168.487 14.8501 183.718 0H173.015C166.129 6.67823 159.604 13.7201 153.469 21.0953C142.171 34.9443 126.94 45.5991 114.807 58.9237C105.105 69.531 91.6139 77.3256 87.5617 92.5094C68.3598 103.78 51.8791 119.146 39.293 137.513C22.5456 157.09 4.81206 175.802 -13.8385 193.576C-51.2436 226.684 -85.8008 262.876 -117.146 301.77C-120.455 302.314 -123.594 303.612 -126.322 305.562C-129.05 307.513 -131.293 310.065 -132.878 313.02C-149.039 337.906 -175.64 352.446 -193.994 375.758C-202.504 386.556 -215.447 396.186 -223.742 408.128C-236.137 425.934 -256.065 435.325 -269.175 451.987C-272.559 454.371 -270.057 457.612 -270.7 460.401C-276.707 459.305 -279.996 463.405 -283.214 467.171C-304.953 492.676 -329.958 515.154 -351.792 540.396C-381.74 574.909 -413.57 607.742 -447.138 638.746C-471.165 661.009 -490.043 687.777 -514.356 710.064C-525.512 720.266 -535.809 731.517 -546.154 742.649H-527.085C-520.387 735.665 -513.808 728.585 -507.468 721.196C-485.599 696.365 -462.471 672.672 -438.175 650.211C-418.844 631.976 -401.968 611.119 -383.566 591.883C-347.582 554.27 -311.294 516.949 -274.705 479.923Z" fill="#212121"/>
<path d="M-74.4794 552.816C-58.9618 535.94 -40.7269 521.376 -25.5431 503.952C-16.8406 490.68 -6.07395 478.883 6.35002 469.008C27.3738 457.256 37.6474 436.28 53.9038 420.834C75.1421 400.692 94.5448 377.595 115.402 356.786C152.372 319.982 187.269 281.319 223.071 243.467C262.664 201.586 303.567 160.85 344.47 120.185C381.44 83.4292 418.363 46.5065 454.118 8.72567C456.859 5.88913 459.529 3.05258 462.198 0.144531H439.482C411.045 29.2488 382.275 58.0909 355.22 88.6254C321.706 126.502 285.594 162.232 249.124 197.344C212.059 232.931 181.357 274.264 144.84 310.209C137.689 317.36 127.129 321.794 121.885 329.874C111.254 346.417 89.9444 353.568 84.2713 373.924C56.1741 396.593 30.68 422.312 8.25698 450.606C-30.4058 490.508 -68.8858 530.68 -107.183 571.123C-123.439 588.214 -141.412 603.874 -156.048 622.109C-172.512 641.003 -190.385 658.621 -209.513 674.812C-233.135 696.55 -255.35 719.743 -277.471 742.793H-260.618C-259.331 741.411 -258.068 739.956 -256.733 738.598C-236.091 717.145 -215.186 695.835 -192.756 675.908C-163.866 650.188 -138.623 620.202 -111.116 592.79C-98.3874 580.133 -86.5883 566.093 -74.4794 552.816Z" fill="#212121"/>
<path d="M108.679 506.702C170.654 441.652 233.94 377.651 296.415 313.007C332.17 276.084 367.233 238.684 402.726 201.619C441.388 161.264 479.884 120.837 519 80.9825C544.94 54.4083 570.48 27.4463 595.61 0.105469H578.734C561.214 20.6525 540.596 38.0054 523.028 58.171C506.992 76.709 490.047 94.4413 472.257 111.303C451.876 130.372 434.309 152.301 414.906 172.395C393.239 194.73 371.619 217.112 348.617 238.041C324.375 260.137 308.429 290.028 280.755 308.692C270.529 315.581 267.096 328.929 255.869 334.912V335.079C257.895 340.705 252.58 342.23 249.815 344.256C238.387 351.625 228.817 361.537 221.855 373.217C219.561 377.187 216.339 380.541 212.463 382.99C199.961 392.018 188.448 402.341 178.115 413.787C161.072 431.259 145.077 450.161 127.605 466.752C108.703 484.724 89.3239 502.197 71.8518 521.576C57.3923 537.957 42.4808 553.933 27.1346 569.487C0.104082 596.279 -27.4747 622.761 -52.9797 650.793C-81.5835 682.329 -112.571 711.6 -141.651 742.683H-119.626C-100.915 723.494 -82.1317 704.354 -62.8719 685.666C-33.9106 657.61 -7.92885 626.599 19.6023 597.113C48.5636 566.293 79.4556 537.379 108.679 506.702Z" fill="#212121"/>
<path d="M287.79 599.664C300.436 585.449 313.835 571.922 327.93 559.142C339.635 550.04 350.471 539.874 360.3 528.774C377.129 508.251 396.889 490.636 415.124 471.567C428.282 457.694 441.344 443.773 455.217 430.616C467.874 418.697 476.289 401.178 489.232 390.904C504.391 377.34 518.518 362.664 531.494 346.997C551.588 325.545 570.919 303.52 592.944 284.045C605.768 272.675 616.781 259.47 628.532 247.337C651.796 223.501 676.419 200.761 699.255 176.304C718.776 155.142 738.747 134.4 759.156 114.091C780.227 93.4013 800.226 71.6624 820.702 50.5433C833.526 37.3141 846.254 22.9647 858.983 9.64009L867.993 0.105469H850.831C821.178 31.7364 791.383 63.1767 761.73 94.8553C715.75 144.006 668.124 191.679 621.715 240.258C607.842 254.798 591.848 266.859 577.474 280.78C557.547 299.849 538.216 319.943 519.766 340.371C502.175 359.798 483.01 377.723 465.967 397.745C439.151 429.472 405.089 454.261 378.869 486.774C359.061 511.326 334.748 531.658 312.794 554.088C285.287 582.215 259.186 611.582 231.321 639.28C220.237 650.316 210.583 662.592 200.477 674.343C193.54 682.424 182.29 687.382 179.668 699.062C164.841 713.364 149.801 727.666 135.809 742.754H146.893C150.532 739.417 154.21 736.143 157.929 732.933C168.577 724.339 178.3 714.656 186.938 704.044C193.707 698.037 200.858 692.364 207.151 685.856C220.044 673.488 232.205 660.38 243.573 646.598C257.437 630.152 272.199 614.483 287.79 599.664Z" fill="#212121"/>
<path d="M168.631 575.811C199.519 549.049 228.712 520.39 256.039 490C288.099 456.438 321.017 423.71 352.696 389.886C359.847 382.282 370.001 376.585 371.002 364.477C364.699 366.667 359.056 370.424 354.603 375.394C340.11 388.98 327.668 404.355 314.391 419.038C276.109 461.372 231.845 497.699 193.301 539.937C182.198 550.364 172.746 562.421 165.27 575.691C162.244 575.936 159.309 576.839 156.669 578.338C154.03 579.837 151.75 581.895 149.991 584.368C141.802 596.328 131.881 607.005 120.553 616.047C103.143 627.816 87.9488 642.567 75.6684 659.62C55.5504 686.531 29.4258 707.03 7.54395 731.844L-2.13379 742.785H16.411C40.3904 717.542 64.513 692.419 88.0873 666.842C113.497 639.311 139.145 612.018 165.365 585.226C167.916 582.628 170.681 580.101 168.631 575.811Z" fill="#212121"/>
<path d="M677.848 481.45C710.171 447.602 742.707 413.969 774.982 380.05C789.999 364.318 803.323 346.846 819.556 332.544C844.131 310.853 862.748 283.775 887.156 261.988C907.036 244.254 921.218 221.085 942.743 204.28C953.09 197.106 961.059 187.004 965.626 175.271C998.728 143.496 1031.11 110.982 1062.76 77.7559C1083.31 55.9694 1104.97 35.2556 1125.02 13.0877C1129.05 8.60646 1133.36 4.36358 1137.8 0.144531H1123.21C1120.66 3.10025 1118.25 6.10363 1116.06 9.10703C1100.97 28.2153 1084.47 46.1593 1066.69 62.7867C1027.93 97.0963 992.161 134.639 959.762 175.009C958.77 174.606 957.71 174.396 956.639 174.389C951.681 174.389 949.489 179.585 946.724 182.636C936.617 193.625 928.965 208.594 916.69 215.531C899.47 226.712 884.483 241.004 872.497 257.674C849.066 286.063 821.511 309.875 796.816 336.644C782.943 351.589 769.619 367.059 755.317 381.623C735.866 401.574 717.965 422.979 698.634 443.002C676.084 466.386 653.344 489.698 629.508 511.651C605.672 533.604 586.865 559.753 563.386 582.135C541.887 602.696 521.388 624.277 501.959 646.804C484.916 666.564 463.463 682.558 444.752 701.246C433.882 712.044 425.968 725.821 414.336 735.261C411.309 737.644 408.425 740.266 405.469 742.793H426.445C431.522 737.501 436.6 732.138 441.581 726.751C485.774 679.078 533.161 634.576 577.449 586.95C610.391 551.41 644.263 516.561 677.848 481.45Z" fill="#212121"/>
<path d="M505.987 514.869C548.368 470.152 593.253 427.675 636.683 383.935C669.005 351.375 701.041 318.623 732.624 285.3C770.357 245.612 806.017 203.827 845.037 165.498C882.126 129.076 918.215 91.605 954.256 54.3725C971.847 36.1376 989.653 18.1649 1007.51 0.144531H987.341C961.478 26.1501 937.618 54.0387 909.157 77.4699C886.707 98.4076 865.557 120.696 845.824 144.212C813.049 178.775 778.486 211.693 746.211 246.542C710.337 285.252 671.794 321.341 636.992 361.171C614.014 387.391 588.175 411.395 562.67 435.422C555.209 442.573 552.206 452.346 544.435 458.519C525.142 473.794 507.56 491.113 491.995 510.173C460.839 546.91 427.705 581.922 392.74 615.053C383.206 624.445 375.197 637.15 366.139 644.587C337.034 668.566 316.821 700.555 288.17 724.701C281.779 730.259 275.841 736.316 270.412 742.817H288.36C294.343 736.548 300.279 730.303 306.405 724.153C318.895 711.377 331.457 697.17 343.971 684.394C364.327 663.585 383.778 641.75 405.016 621.656C440.628 587.999 472.259 550.409 505.987 514.869Z" fill="#212121"/>
<path d="M1123.16 441.381C1165.42 397.474 1210.31 355.904 1251.38 310.924C1288.18 270.402 1329.01 234.314 1365.05 193.077C1386.51 168.382 1410.82 145.285 1434.47 122.092C1469.79 87.5289 1503.04 50.8923 1537.18 15.0661L1551.48 0.144531H1533.03C1519.32 14.9946 1505.95 30.1309 1491.91 44.7188C1468.81 68.5552 1445.6 92.6538 1421.24 115.37C1397.92 137.109 1380.72 164.187 1355.33 184.329C1339.38 197.01 1329.23 216.556 1311.71 228.569C1308.2 230.953 1306.42 235.839 1303.63 239.391C1300.15 244.701 1295.96 249.512 1291.19 253.693C1278.06 263.484 1265.86 274.472 1254.76 286.516C1238.27 303.201 1223.18 321.746 1206.21 337.454C1187.14 355.308 1168.26 373.209 1150.34 392.278C1135.1 408.487 1120.47 425.363 1104.69 441.095C1078.47 467.315 1051.89 493.535 1026.72 520.637C990.965 559.157 952.994 595.293 917.882 634.337C895.667 658.96 871.473 681.843 847.565 704.893C839.58 712.592 835.432 723.557 827.471 729.945C822.322 734.069 817.317 738.336 812.406 742.674H830.832C856.504 716.454 882.509 690.663 908.396 664.752C944.961 628.164 981.001 591.026 1017.5 554.342C1053.99 517.658 1087.34 478.495 1123.16 441.381Z" fill="#212121"/>
<path d="M865.798 564.224C885.573 546.862 904.399 528.45 922.195 509.066C948.582 480.462 977.734 454.624 1002.91 424.661C1019.14 405.33 1040.88 390.194 1056.87 370.147C1071.44 351.912 1091.86 339.16 1105.02 320.567C1115.9 306.921 1127.86 294.168 1140.78 282.429C1160.82 261.954 1180.11 240.453 1201.06 220.669C1236.81 187.036 1268.56 149.469 1302.15 113.643C1338.4 74.9328 1376.26 37.5811 1413.82 0.0625H1394.75C1383.43 11.1465 1371.87 21.9682 1360.33 32.8376C1352.25 40.4891 1348.7 51.2869 1340.31 57.8896C1321.31 72.8573 1303.99 89.8319 1288.63 108.518C1256.57 146.301 1222.43 182.27 1186.37 216.259C1177.36 225.055 1169.88 237.068 1161.3 244.267C1134.56 269.32 1109.1 295.709 1085.02 323.332C1056.74 352.387 1028.82 381.788 1001.26 411.527C980.618 433.862 959.761 456.197 937.593 477.054C919.19 497.515 899.746 517.015 879.337 535.477C867.743 545.253 856.713 555.678 846.3 566.703C830.468 582.191 815.041 598.087 800.033 614.375C777.532 638.617 754.434 662.263 732.171 686.672C714.27 706.265 693.365 722.903 675.464 742.64H697.25C709.999 727.355 723.914 713.082 738.869 699.948C752.36 688.698 758.748 671.869 772.788 661.81C788.255 649.086 802.133 634.544 814.121 618.499C830.099 599.26 847.365 581.126 865.798 564.224Z" fill="#212121"/>
<path d="M692.056 598.471L716.37 575.731C728.765 569.557 731.887 554.278 742.971 547.508C761.144 532.817 777.902 516.457 793.028 498.644L829.211 457.859C832.231 456.855 834.996 455.208 837.317 453.031C839.638 450.854 841.459 448.199 842.655 445.25C834.67 446.847 829.879 453.211 823.896 457.788C809.843 467.826 798.186 480.85 789.762 495.926C787.974 496.236 785.329 495.926 784.518 496.951C763.28 524.792 733.341 544.338 712.532 572.584C703.105 578.07 695.179 585.8 689.458 595.086C673.451 607.478 659.432 622.244 647.887 638.874C628.757 654.686 611.412 672.542 596.162 692.124C580.097 709.906 562.791 726.473 545.391 742.92H556.808C574.114 725.162 591.633 707.57 608.343 689.264C625.415 674.444 640.523 657.502 653.298 638.85C669.061 628.491 682.304 614.735 692.056 598.59V598.471Z" fill="#212121"/>
<path d="M1183.78 516.229C1203.04 494.919 1224.3 475.373 1244.61 455.112C1246.99 452.729 1249.02 450.583 1246.71 447.103C1285.95 411.781 1323.2 374.316 1358.31 334.881C1360.1 332.903 1361.74 330.758 1363.7 328.97C1394.47 300.676 1422.38 269.617 1450.89 239.13C1447.24 234.673 1444 236.508 1440.69 239.631C1433.18 246.043 1426.02 252.846 1419.23 260.011C1394.15 289.389 1367.53 317.428 1339.5 344.011C1305.84 373.189 1275.08 405.55 1247.64 440.644C1245.63 443.432 1235.05 439.714 1241.2 448.51C1234.29 445.888 1231.67 451.775 1228.42 455.47C1220.59 467.169 1211.08 477.657 1200.2 486.6C1182.69 497.906 1167.39 512.328 1155.08 529.148C1130.91 558.706 1102.35 583.496 1076.7 611.241C1063.19 625.877 1050.22 641.013 1036.4 655.386C1019.38 673.049 1003.03 691.141 986.65 709.567C976.496 721.032 965.794 732.044 954.876 742.938H970.823C988.748 724.25 1006.82 705.657 1024.74 686.97C1055.73 654.6 1086.48 621.848 1117.49 589.431C1140.2 565.499 1161.71 540.59 1183.78 516.229Z" fill="#212121"/>
<path d="M1111.32 727.84C1103.67 731.146 1096.95 736.278 1091.75 742.786H1099.66C1104.71 739.435 1108.72 734.737 1111.24 729.223C1114.15 728.432 1116.86 727.059 1119.21 725.186C1121.56 723.313 1123.51 720.98 1124.93 718.329C1121.87 717.833 1118.73 718.549 1116.19 720.325C1113.65 722.1 1111.9 724.796 1111.32 727.84Z" fill="#212121"/>
<path d="M1422.5 555.176C1443.76 533.318 1464.12 510.459 1486.45 489.531C1521.23 457.089 1551.43 420.191 1584.18 385.771C1626.82 341.006 1671.49 298.148 1715.07 254.241C1749.01 220.212 1782.63 185.862 1815.92 151.196C1850 115.441 1882.83 78.4473 1917.06 42.8595C1930.93 28.5576 1945.06 14.2557 1959.2 0.144531H1938.18C1925.95 13.636 1913.77 27.2466 1900.9 40.1183C1874.29 66.6721 1847.1 92.8207 1821.97 120.566C1787.36 158.705 1748.82 193.124 1715.11 232.288C1691.43 258.714 1666.29 283.798 1639.81 307.42C1632.5 314.237 1630.47 324.106 1622.84 329.874C1603.54 344.497 1586.13 361.455 1571 380.36C1539.56 417.393 1506.14 452.699 1470.89 486.122C1461.16 495.657 1453.08 508.242 1443.69 516.394C1414.2 541.828 1391.06 572.911 1363.19 599.655C1344.7 617.509 1328.03 637.793 1309.89 656.457C1281.96 685.228 1253.83 713.903 1226.06 742.888H1242.39C1258.53 726.632 1274.69 710.376 1290.06 693.356C1300.72 681.581 1312.18 670.64 1323.15 659.342C1343.79 638.056 1364.34 616.317 1385.12 594.983C1397.33 582.088 1410.01 568 1422.5 555.176Z" fill="#212121"/>
<path d="M1549.09 567.014C1579.82 530.258 1617.34 500.272 1648.68 463.85C1670.97 437.916 1696.36 413.793 1720.81 389.647C1741.79 369.005 1760.14 345.693 1781.43 325.289C1825.79 282.955 1865.09 235.902 1909 193.187C1918.51 184.63 1927.19 175.197 1934.94 165.012C1942.08 153.861 1951.54 144.382 1962.68 137.219C1963.71 136.623 1964.16 134.835 1965.06 133.953C1980.12 115.809 1996.23 98.5766 2013.33 82.3474C2024.16 73.0035 2030.88 60.3941 2042.29 52.099C2045.13 50.0253 2040.82 48.5474 2041.08 46.5213C2059.42 32.706 2076.43 17.1999 2091.87 0.207031H2076.95L2072.38 5.18884C2060.63 17.9652 2044.63 27.5237 2040.91 46.3545C2038.12 46.3545 2037.48 40.896 2031.74 46.3545C2016.88 64.3968 2000.52 81.1426 1982.82 96.411C1974.26 100.97 1967.64 108.483 1964.21 117.554C1962.06 124.109 1950.93 125.682 1945.47 133.167C1938.06 146.042 1928.51 157.56 1917.22 167.229C1901.04 179.775 1886.32 194.104 1873.34 209.944C1850.13 235.115 1825.38 258.928 1802.88 284.695C1773.38 318.271 1742.24 350.363 1709.56 380.851C1683.08 405.761 1661.2 434.817 1634.55 459.821C1608.45 484.325 1586.33 513.549 1558.96 536.932C1528.43 562.962 1504.95 595.689 1473.46 621.123C1448.57 644.846 1424.99 669.912 1402.83 696.208C1387.63 711.582 1372.61 727.195 1357.54 742.784H1378.14L1379.24 741.592C1414.99 702.977 1453.61 667.437 1489.05 628.655C1508.41 607.464 1530.69 589.063 1549.09 567.014Z" fill="#212121"/>
</svg>
